<svg width="26" height="26" viewBox="0 0 26 26" fill="none" xmlns="http://www.w3.org/2000/svg">
<g id="remove_red_eye" clip-path="url(#clip0_1_4098)">
<path id="Vector" d="M12.6338 7.65915C16.5746 7.65915 20.089 9.87387 21.8047 13.3779C20.089 16.882 16.585 19.0967 12.6338 19.0967C8.68269 19.0967 5.17864 16.882 3.463 13.3779C5.17864 9.87387 8.69309 7.65915 12.6338 7.65915ZM12.6338 5.57959C7.43495 5.57959 2.9951 8.8133 1.19629 13.3779C2.9951 17.9425 7.43495 21.1763 12.6338 21.1763C17.8327 21.1763 22.2726 17.9425 24.0714 13.3779C22.2726 8.8133 17.8327 5.57959 12.6338 5.57959ZM12.6338 10.7785C14.0687 10.7785 15.2333 11.943 15.2333 13.3779C15.2333 14.8128 14.0687 15.9774 12.6338 15.9774C11.1989 15.9774 10.0344 14.8128 10.0344 13.3779C10.0344 11.943 11.1989 10.7785 12.6338 10.7785ZM12.6338 8.69892C10.0552 8.69892 7.95484 10.7993 7.95484 13.3779C7.95484 15.9566 10.0552 18.0569 12.6338 18.0569C15.2125 18.0569 17.3128 15.9566 17.3128 13.3779C17.3128 10.7993 15.2125 8.69892 12.6338 8.69892Z" fill="#A3AED0"/>
</g>
<defs>
<clipPath id="clip0_1_4098">
<rect width="24.9547" height="24.9547" fill="white" transform="translate(0.15625 0.900391)"/>
</clipPath>
</defs>
</svg>
